<mxfile host="app.diagrams.net" modified="2021-04-22T09:50:29.170Z" agent="5.0 (Macintosh; Intel Mac OS X 11_2_3) AppleWebKit/537.36 (KHTML, like Gecko) Chrome/89.0.4389.128 Safari/537.36" etag="t24cl9K7N1o5H8lhdiYi" version="14.6.5" type="github" pages="2">
  <diagram id="BwJc6yKDOgzcAad1IvjL" name="Page-1">
    <mxGraphModel dx="1166" dy="838" grid="1" gridSize="10" guides="1" tooltips="1" connect="1" arrows="1" fold="1" page="1" pageScale="1" pageWidth="827" pageHeight="1169" math="0" shadow="0">
      <root>
        <mxCell id="0" />
        <mxCell id="1" parent="0" />
      </root>
    </mxGraphModel>
  </diagram>
  <diagram id="l5NmKKX7Hx-L8YMWOaCh" name="Page-2">
    <mxGraphModel dx="1166" dy="838" grid="1" gridSize="10" guides="1" tooltips="1" connect="1" arrows="1" fold="1" page="1" pageScale="1" pageWidth="827" pageHeight="1169" math="0" shadow="0">
      <root>
        <mxCell id="0gxchssIYDNPnxXci_ud-0" />
        <mxCell id="0gxchssIYDNPnxXci_ud-1" parent="0gxchssIYDNPnxXci_ud-0" />
        <mxCell id="0gxchssIYDNPnxXci_ud-2" value="" style="whiteSpace=wrap;html=1;" vertex="1" parent="0gxchssIYDNPnxXci_ud-1">
          <mxGeometry x="190" y="150" width="400" height="60" as="geometry" />
        </mxCell>
      </root>
    </mxGraphModel>
  </diagram>
</mxfile>
